<svg xmlns="http://www.w3.org/2000/svg" xmlns:xlink="http://www.w3.org/1999/xlink" width="957" height="597" version="1.1" viewBox="0 0 957 597"><desc>Created with Sketch.</desc><defs><rect id="path-1" width="531" height="152.368" x="0" y="40.632"/><rect id="path-2" width="112.2" height="33.565" x="0" y="47.551" rx="8"/><rect id="path-3" width="99" height="33.565" x="135" y="47.551" rx="8"/><rect id="path-4" width="112.2" height="33.565" x="249" y="47.551" rx="8"/><rect id="path-5" width="112.2" height="33.565" x="387.599" y="47.551" rx="8"/><rect id="path-6" width="99" height="33.565" x="135" y="0" rx="8"/><rect id="path-7" width="112.2" height="33.565" x="249" y="0" rx="8"/><rect id="path-8" width="112.2" height="33.565" x="387" y="0" rx="8"/><rect id="path-9" width="112.2" height="33.565" x="0" y="95.101" rx="8"/><rect id="path-10" width="99" height="33.565" x="135" y="95.101" rx="8"/><rect id="path-11" width="112.2" height="33.565" x="249" y="95.101" rx="8"/><rect id="path-12" width="112.2" height="33.565" x="387" y="95.101" rx="8"/><rect id="path-13" width="112.2" height="33.565" x="0" y="0" rx="8"/><rect id="path-14" width="531" height="152.457" x="0" y="240.543"/><rect id="path-15" width="531" height="117.448" x="0" y="123.095"/><rect id="path-16" width="531" height="41.784" x="0" y="81.31"/><rect id="path-17" width="531" height="41.699" x="0" y=".074"/><rect id="path-18" width="406" height="482.656" x="0" y="0"/><rect id="path-19" width="406" height="60.332" x="0" y="0"/><rect id="path-20" width="406" height="19.724" x="0" y="0"/></defs><g id="Page-1" fill="none" fill-rule="evenodd" stroke="none" stroke-width="1"><g id="Components" transform="translate(0.000000, -4.000000)"><g id="Characters" transform="translate(426.000000, 0.000000)"><g><use fill="#BD0FE1" fill-rule="evenodd" xlink:href="#path-1"/><rect width="530" height="151.368" x=".5" y="41.132" stroke="#979797" stroke-width="1"/></g><g id="Group" transform="translate(16.500000, 51.918129)"><g id="Character-Copy"><use fill="#4A4A4A" fill-rule="evenodd" xlink:href="#path-2"/><rect width="111.2" height="32.565" x=".5" y="48.051" stroke="#979797" stroke-width="1" rx="8"/></g><g id="Character-Copy-2"><use fill="#4A4A4A" fill-rule="evenodd" xlink:href="#path-3"/><rect width="98" height="32.565" x="135.5" y="48.051" stroke="#979797" stroke-width="1" rx="8"/></g><g id="Character-Copy-3"><use fill="#4A4A4A" fill-rule="evenodd" xlink:href="#path-4"/><rect width="111.2" height="32.565" x="249.5" y="48.051" stroke="#979797" stroke-width="1" rx="8"/></g><g id="Character-Copy-4"><use fill="#4A4A4A" fill-rule="evenodd" xlink:href="#path-5"/><rect width="111.2" height="32.565" x="388.099" y="48.051" stroke="#979797" stroke-width="1" rx="8"/></g><g id="Character-Copy-7"><use fill="#4A4A4A" fill-rule="evenodd" xlink:href="#path-6"/><rect width="98" height="32.565" x="135.5" y=".5" stroke="#979797" stroke-width="1" rx="8"/></g><g id="Character-Copy-6"><use fill="#4A4A4A" fill-rule="evenodd" xlink:href="#path-7"/><rect width="111.2" height="32.565" x="249.5" y=".5" stroke="#979797" stroke-width="1" rx="8"/></g><g id="Character-Copy-5"><use fill="#4A4A4A" fill-rule="evenodd" xlink:href="#path-8"/><rect width="111.2" height="32.565" x="387.5" y=".5" stroke="#979797" stroke-width="1" rx="8"/></g><g id="Character-Copy-12"><use fill="#4A4A4A" fill-rule="evenodd" xlink:href="#path-9"/><rect width="111.2" height="32.565" x=".5" y="95.601" stroke="#979797" stroke-width="1" rx="8"/></g><g id="Character-Copy-11"><use fill="#4A4A4A" fill-rule="evenodd" xlink:href="#path-10"/><rect width="98" height="32.565" x="135.5" y="95.601" stroke="#979797" stroke-width="1" rx="8"/></g><g id="Character-Copy-10"><use fill="#4A4A4A" fill-rule="evenodd" xlink:href="#path-11"/><rect width="111.2" height="32.565" x="249.5" y="95.601" stroke="#979797" stroke-width="1" rx="8"/></g><g id="Character-Copy-9"><use fill="#4A4A4A" fill-rule="evenodd" xlink:href="#path-12"/><rect width="111.2" height="32.565" x="387.5" y="95.601" stroke="#979797" stroke-width="1" rx="8"/></g><g id="Character"><g id="Character-Copy-8"><use fill="#4A4A4A" fill-rule="evenodd" xlink:href="#path-13"/><rect width="111.2" height="32.565" x=".5" y=".5" stroke="#979797" stroke-width="1" rx="8"/></g><text id="Name" fill="#FFF" font-family="SFUIText-Medium, SF UI Text" font-size="15" font-weight="400" letter-spacing="-.171"><tspan x="35.421" y="21">Name</tspan></text></g></g><text fill="#000" font-family="SFUIText-Bold, SF UI Text" font-size="20" font-weight="bold" letter-spacing="-.229"><tspan x="212.48" y="19">Characters</tspan></text></g><g id="Film" transform="translate(426.000000, 208.000000)"><g id="Characters"><use fill="#BD0FE1" fill-rule="evenodd" xlink:href="#path-14"/><rect width="530" height="151.457" x=".5" y="241.043" stroke="#979797" stroke-width="1"/></g><g id="Opening-Crawl"><use fill="#B8E986" fill-rule="evenodd" xlink:href="#path-15"/><rect width="530" height="116.448" x=".5" y="123.595" stroke="#979797" stroke-width="1"/></g><text id="Opening-Crawl" fill="#000" font-family="SFUIText-Medium, SF UI Text" font-size="15" font-weight="400" letter-spacing="-.171"><tspan x="213.598" y="186">Opening Crawl</tspan></text><g id="Subtitle"><use fill="#B8E986" fill-rule="evenodd" xlink:href="#path-16"/><rect width="530" height="40.784" x=".5" y="81.81" stroke="#979797" stroke-width="1"/></g><text id="Episode-Title" fill="#000" font-family="SFUIText-Medium, SF UI Text" font-size="15" font-weight="400" letter-spacing="-.171"><tspan x="224.276" y="106">Episode Title</tspan></text><g id="Title" transform="translate(0.000000, 39.451737)"><g><use fill="#B8E986" fill-rule="evenodd" xlink:href="#path-17"/><rect width="530" height="40.699" x=".5" y=".574" stroke="#979797" stroke-width="1"/></g><text id="Episode-Number" fill="#000" font-family="SFUIText-Medium, SF UI Text" font-size="15" font-weight="400" letter-spacing="-.171"><tspan x="206.971" y="25">Episode Number</tspan></text></g><rect id="Border" width="530" height="352.474" x=".5" y="40.026" stroke="#979797"/><text fill="#000" font-family="SFUIText-Bold, SF UI Text" font-size="20" font-weight="bold" letter-spacing="-.229"><tspan x="245.277" y="19">Film</tspan></text><text id="Characters" fill="#000" font-family="SFUIText-Medium, SF UI Text" font-size="15" font-weight="400" letter-spacing="-.171"><tspan x="226.411" y="321">Characters</tspan></text></g><g id="App"><g id="Scrollview" transform="translate(0.000000, 118.343629)"><g><use fill="#B8E986" fill-rule="evenodd" xlink:href="#path-18"/><rect width="405" height="481.656" x=".5" y=".5" stroke="#979797" stroke-width="1"/></g><text id="Scrollview-(renders" fill="#000" font-family="SFUIText-Medium, SF UI Text" font-size="15" font-weight="400" letter-spacing="-.171"><tspan x="167.391" y="219.521">Scrollview </tspan> <tspan x="60.022" y="237.521">(renders Film components for every film)</tspan></text></g><g id="Header" transform="translate(0.000000, 58.011583)"><g><use fill="#50E3C2" fill-rule="evenodd" xlink:href="#path-19"/><rect width="405" height="59.332" x=".5" y=".5" stroke="#979797" stroke-width="1"/></g><text id="HeaderText" fill="#000" font-family="SFUIText-Medium, SF UI Text" font-size="15" font-weight="400" letter-spacing="-.257"><tspan x="177.995" y="32.564">Header</tspan></text></g><g id="Statusbar" transform="translate(0.000000, 38.287645)"><g id="StatusBar"><use fill="#50E3C2" fill-rule="evenodd" xlink:href="#path-20"/><rect width="405" height="18.724" x=".5" y=".5" stroke="#979797" stroke-width="1"/></g><text id="HeaderText" fill="#000" font-family="SFUIText-Medium, SF UI Text" font-size="15" font-weight="400" letter-spacing="-.24"><tspan x="168.686" y="15">StatusBar</tspan></text></g><rect id="Border" width="405" height="561.712" x=".5" y="38.788" stroke="#979797"/><text fill="#000" font-family="SFUIText-Bold, SF UI Text" font-size="20" font-weight="bold" letter-spacing="-.229"><tspan x="183.379" y="19">App</tspan></text></g></g></g></svg>