<svg xmlns="http://www.w3.org/2000/svg" xmlns:xlink="http://www.w3.org/1999/xlink" width="124" height="139" version="1.1" viewBox="0 0 124 139"><title>logo final</title><desc>Created with Sketch.</desc><defs><radialGradient id="radialGradient-1" cx="0%" cy="100%" r="141.421%" fx="0%" fy="100%" gradientTransform="translate(0.000000,1.000000),scale(1.000000,0.950305),rotate(-46.459610),translate(-0.000000,-1.000000)"><stop offset="0%" stop-color="#61045F"/><stop offset="100%" stop-color="#282D4C"/></radialGradient><path id="path-2" d="M4.10520759,38.671 L4.10520759,38.671 C4.10520759,35.1012941 6.0080769,31.8022829 9.09805797,30.0148778 L9.09805797,30.0148778 L51.9173357,5.24598895 C55.0098394,3.45712456 58.821774,3.45395776 61.9172457,5.23768143 L61.9172457,5.23768143 L78.697188,14.9068961 C78.8497029,14.9947807 78.9763177,15.1213659 79.064238,15.2738602 C79.3400926,15.7523188 79.1758496,16.3638105 78.6973909,16.6396651 L78.6973909,16.6396651 L27.7410379,46.0184716 C27.4313432,46.1970256 27.2405169,46.5273171 27.2405169,46.8847976 L27.2405169,59.8160556 C27.2405169,59.9919543 27.1941199,60.164741 27.1060081,60.3169797 C26.8293553,60.7949773 26.2175903,60.9581996 25.7395927,60.6815468 L25.7395927,60.6815468 L15.4637247,54.7341376 C15.311486,54.6460258 15.1386992,54.5996288 14.9628006,54.5996288 C14.4105158,54.5996288 13.9628006,55.0473441 13.9628006,55.5996288 L13.9628006,55.5996288 L13.9628006,87.2589844 C13.9628006,87.6170814 14.1542801,87.9478444 14.464817,88.1261708 L14.464817,88.1261708 L26.7385004,95.1743584 C27.0490373,95.3526848 27.2405169,95.6834478 27.2405169,96.0415448 L27.2405169,96.0415448 L27.2405169,105.451715 C27.2405169,105.627744 27.1940513,105.800654 27.1058157,105.952971 C26.8289795,106.430862 26.2171519,106.59385 25.7392605,106.317014 L25.7392605,106.317014 L9.0926441,96.6738455 C6.0057153,94.8856278 4.10520759,91.5883285 4.10520759,88.0208571 L4.10520759,88.0208571 L4.10520759,38.671 Z M33.770945,110.403423 L33.770945,50.6700597 C33.770945,50.3118846 33.9625073,49.981062 34.2731508,49.8027645 L56.3862615,37.1106867 C56.6958661,36.9329855 57.0767194,36.9338011 57.38556,37.1128267 L79.5036153,49.9339963 L79.5036153,49.9339963 C79.8121683,50.1128552 80.002111,50.4425067 80.002111,50.7991514 L80.002111,110.406978 L80.002111,110.406978 C80.002111,110.76464 79.8110921,111.095071 79.501149,111.273558 L71.7004141,115.765773 C71.2218152,116.041384 70.6104071,115.876829 70.334796,115.39823 C70.2473844,115.24644 70.2013761,115.074353 70.2013761,114.899192 L70.2013761,84.1989002 C70.2013761,83.6466155 69.7536608,83.1989002 69.2013761,83.1989002 C69.0250696,83.1989002 68.851897,83.2455124 68.6994117,83.3340119 L57.4180897,89.8814724 L57.4180897,89.8814724 C57.1070328,90.0620038 56.7229904,90.0615946 56.4123189,89.8804007 L45.1971961,83.3393705 L45.1971961,83.3393705 C44.7201233,83.0611259 44.1078177,83.222308 43.8295731,83.6993807 C43.7403846,83.8523015 43.6933897,84.0261578 43.6933897,84.2031871 L43.6933897,114.909765 C43.6933897,115.46205 43.2456744,115.909765 42.6933897,115.909765 C42.5200334,115.909765 42.3496548,115.864699 42.1989695,115.778988 L34.2765248,111.272646 L34.2765248,111.272646 C33.9639833,111.09487 33.770945,110.762987 33.770945,110.403423 L33.770945,110.403423 Z M109.703949,38.5764245 L109.703949,47.4470964 C109.703949,47.8022094 109.515621,48.1306854 109.209159,48.3100924 L96.981941,55.4680889 L96.981941,55.4680889 C96.6754799,55.6474958 96.4871518,55.9759718 96.4871518,56.3310849 L96.4871518,65.3320773 C96.4871518,65.8843621 96.934867,66.3320773 97.4871518,66.3320773 C97.6620585,66.3320773 97.8339062,66.2862019 97.985542,66.1990301 L108.205558,60.3237891 C108.684363,60.0485357 109.295648,60.2135468 109.570901,60.6923516 C109.658073,60.8439874 109.703949,61.0158351 109.703949,61.1907418 L109.703949,88.008862 C109.703949,91.579103 107.800514,94.8785241 104.709802,96.6657342 L88.144133,106.244864 L88.144133,106.244864 C87.6660271,106.521329 87.0543261,106.357868 86.7778605,105.879762 C86.6898747,105.727604 86.6435477,105.554942 86.6435477,105.379177 L86.6435477,96.2755125 C86.6435477,95.917882 86.8345329,95.5874757 87.1444324,95.4089769 L99.3388311,88.3851326 C99.6487307,88.2066338 99.8397158,87.8762275 99.8397158,87.518597 L99.8397158,78.3834171 L99.8397158,78.3834171 C99.8397158,77.8311323 99.3920006,77.3834171 98.8397158,77.3834171 C98.6640609,77.3834171 98.4915048,77.4296856 98.3394138,77.5175661 L88.1438497,83.4087198 L88.1438497,83.4087198 C87.6656534,83.6850289 87.0540059,83.5213671 86.7776967,83.0431708 C86.6898162,82.8910798 86.6435477,82.7185237 86.6435477,82.5428688 L86.6435477,46.9760234 C86.6435477,46.6191664 86.4533809,46.2893524 86.1445381,46.1105705 L64.877186,33.7993981 C64.3992096,33.5227088 64.2360342,32.9109313 64.5127236,32.4329549 C64.6003899,32.2815127 64.7262606,32.1557256 64.8777609,32.0681599 L86.1433794,19.7768381 L86.1433794,19.7768381 C86.4528591,19.5979617 86.8342834,19.5978801 87.1438398,19.7766239 L104.704397,29.9164294 C107.798155,31.7028251 109.703949,35.0039536 109.703949,38.5764245 L109.703949,38.5764245 Z"/></defs><g id="Page-1" fill="none" fill-rule="evenodd" stroke="none" stroke-width="1"><g id="OG_Twitter-Blog2-Copy-20" transform="translate(-429.000000, -44.000000)"><g id="Group-4" transform="translate(434.000000, 50.000000)"><g id="Group-2"><g id="Group-3"><g id="logo-final"><path id="Path" stroke="#FFF" stroke-width="5" d="M63.1722489,-1.29770036 L109.845825,25.6916161 C113.709193,27.9256348 116.088469,32.0498985 116.088469,36.5126831 L116.088469,90.518509 C116.088469,94.9812936 113.709193,99.1055572 109.845825,101.339576 L63.1722489,128.328892 C59.3009982,130.56747 54.5287868,130.56747 50.6575361,128.328892 L3.98395982,101.339576 C0.120592488,99.1055572 -2.25868378,94.9812936 -2.25868378,90.518509 L-2.25868378,36.5126831 C-2.25868378,32.0498985 0.120592488,27.9256348 3.98395982,25.6916161 L50.6575361,-1.29770036 C54.5287868,-3.53627771 59.3009982,-3.53627771 63.1722489,-1.29770036 Z"/><mask id="mask-3" fill="#fff"><use xlink:href="#path-2"/></mask><use id="color-copy-5" fill="url(#radialGradient-1)" xlink:href="#path-2"/><g id="Group" mask="url(#mask-3)"><g transform="translate(3.368549, 2.278603)"><polygon id="Polygon-2-Copy" fill="#E6E6E6" points="113.508 26.2 113.508 96.911 52.235 132.267 52.105 61.386"/><polygon id="Polygon-2-Copy-2" fill="#D2D2D2" points="53.659 60.981 53.659 122.052 .779 91.539 .779 30.513"/><polygon id="Polygon-2" fill="#FFF" points="53.659 0 107.228 30.91 53.545 61.82 .09 30.91" transform="translate(53.659115, 30.910145) rotate(-360.000000) translate(-53.659115, -30.910145)"/></g></g><path id="color-copy-3" d="M4.10520759,38.671 L4.10520759,38.671 C4.10520759,35.1012941 6.0080769,31.8022829 9.09805797,30.0148778 L9.09805797,30.0148778 L51.9173357,5.24598895 C55.0098394,3.45712456 58.821774,3.45395776 61.9172457,5.23768143 L61.9172457,5.23768143 L78.697188,14.9068961 C78.8497029,14.9947807 78.9763177,15.1213659 79.064238,15.2738602 C79.3400926,15.7523188 79.1758496,16.3638105 78.6973909,16.6396651 L78.6973909,16.6396651 L27.7410379,46.0184716 C27.4313432,46.1970256 27.2405169,46.5273171 27.2405169,46.8847976 L27.2405169,59.8160556 C27.2405169,59.9919543 27.1941199,60.164741 27.1060081,60.3169797 C26.8293553,60.7949773 26.2175903,60.9581996 25.7395927,60.6815468 L25.7395927,60.6815468 L15.4637247,54.7341376 C15.311486,54.6460258 15.1386992,54.5996288 14.9628006,54.5996288 C14.4105158,54.5996288 13.9628006,55.0473441 13.9628006,55.5996288 L13.9628006,55.5996288 L13.9628006,87.2589844 C13.9628006,87.6170814 14.1542801,87.9478444 14.464817,88.1261708 L14.464817,88.1261708 L26.7385004,95.1743584 C27.0490373,95.3526848 27.2405169,95.6834478 27.2405169,96.0415448 L27.2405169,96.0415448 L27.2405169,105.451715 C27.2405169,105.627744 27.1940513,105.800654 27.1058157,105.952971 C26.8289795,106.430862 26.2171519,106.59385 25.7392605,106.317014 L25.7392605,106.317014 L9.0926441,96.6738455 C6.0057153,94.8856278 4.10520759,91.5883285 4.10520759,88.0208571 L4.10520759,88.0208571 L4.10520759,38.671 Z M33.770945,110.403423 L33.770945,50.6700597 C33.770945,50.3118846 33.9625073,49.981062 34.2731508,49.8027645 L56.3862615,37.1106867 C56.6958661,36.9329855 57.0767194,36.9338011 57.38556,37.1128267 L79.5036153,49.9339963 L79.5036153,49.9339963 C79.8121683,50.1128552 80.002111,50.4425067 80.002111,50.7991514 L80.002111,110.406978 L80.002111,110.406978 C80.002111,110.76464 79.8110921,111.095071 79.501149,111.273558 L71.7004141,115.765773 C71.2218152,116.041384 70.6104071,115.876829 70.334796,115.39823 C70.2473844,115.24644 70.2013761,115.074353 70.2013761,114.899192 L70.2013761,84.1989002 C70.2013761,83.6466155 69.7536608,83.1989002 69.2013761,83.1989002 C69.0250696,83.1989002 68.851897,83.2455124 68.6994117,83.3340119 L57.4180897,89.8814724 L57.4180897,89.8814724 C57.1070328,90.0620038 56.7229904,90.0615946 56.4123189,89.8804007 L45.1971961,83.3393705 L45.1971961,83.3393705 C44.7201233,83.0611259 44.1078177,83.222308 43.8295731,83.6993807 C43.7403846,83.8523015 43.6933897,84.0261578 43.6933897,84.2031871 L43.6933897,114.909765 C43.6933897,115.46205 43.2456744,115.909765 42.6933897,115.909765 C42.5200334,115.909765 42.3496548,115.864699 42.1989695,115.778988 L34.2765248,111.272646 L34.2765248,111.272646 C33.9639833,111.09487 33.770945,110.762987 33.770945,110.403423 L33.770945,110.403423 Z M109.703949,38.5764245 L109.703949,47.4470964 C109.703949,47.8022094 109.515621,48.1306854 109.209159,48.3100924 L96.981941,55.4680889 L96.981941,55.4680889 C96.6754799,55.6474958 96.4871518,55.9759718 96.4871518,56.3310849 L96.4871518,65.3320773 C96.4871518,65.8843621 96.934867,66.3320773 97.4871518,66.3320773 C97.6620585,66.3320773 97.8339062,66.2862019 97.985542,66.1990301 L108.205558,60.3237891 C108.684363,60.0485357 109.295648,60.2135468 109.570901,60.6923516 C109.658073,60.8439874 109.703949,61.0158351 109.703949,61.1907418 L109.703949,88.008862 C109.703949,91.579103 107.800514,94.8785241 104.709802,96.6657342 L88.144133,106.244864 L88.144133,106.244864 C87.6660271,106.521329 87.0543261,106.357868 86.7778605,105.879762 C86.6898747,105.727604 86.6435477,105.554942 86.6435477,105.379177 L86.6435477,96.2755125 C86.6435477,95.917882 86.8345329,95.5874757 87.1444324,95.4089769 L99.3388311,88.3851326 C99.6487307,88.2066338 99.8397158,87.8762275 99.8397158,87.518597 L99.8397158,78.3834171 L99.8397158,78.3834171 C99.8397158,77.8311323 99.3920006,77.3834171 98.8397158,77.3834171 C98.6640609,77.3834171 98.4915048,77.4296856 98.3394138,77.5175661 L88.1438497,83.4087198 L88.1438497,83.4087198 C87.6656534,83.6850289 87.0540059,83.5213671 86.7776967,83.0431708 C86.6898162,82.8910798 86.6435477,82.7185237 86.6435477,82.5428688 L86.6435477,46.9760234 C86.6435477,46.6191664 86.4533809,46.2893524 86.1445381,46.1105705 L64.877186,33.7993981 C64.3992096,33.5227088 64.2360342,32.9109313 64.5127236,32.4329549 C64.6003899,32.2815127 64.7262606,32.1557256 64.8777609,32.0681599 L86.1433794,19.7768381 L86.1433794,19.7768381 C86.4528591,19.5979617 86.8342834,19.5978801 87.1438398,19.7766239 L104.704397,29.9164294 C107.798155,31.7028251 109.703949,35.0039536 109.703949,38.5764245 L109.703949,38.5764245 Z" mask="url(#mask-3)" style="mix-blend-mode:multiply"/></g></g></g></g></g></g></svg>